<svg data-v-fde0c5aa="" xmlns="http://www.w3.org/2000/svg" viewBox="0 0 300 300" class="iconLeftSlogan"><!----><defs data-v-fde0c5aa=""><!----></defs><rect data-v-fde0c5aa="" fill="#FFFFFF" x="0" y="0" width="300px" height="300px" class="logo-background-square"></rect><defs data-v-fde0c5aa=""><!----></defs><g data-v-fde0c5aa="" id="194f5746-3a58-413d-8c79-a08757a32726" fill="#ff851b" transform="matrix(1.6031907796859741,0,0,1.6031907796859741,95.2080227708078,127.63939981938154)"><path d="M9.95 13.05L7.62 13.05Q7.46 12.54 7.27 12.01Q7.08 11.48 6.90 10.95L6.90 10.95L3.12 10.95Q2.94 11.48 2.75 12.01Q2.56 12.54 2.41 13.05L2.41 13.05L0.14 13.05Q0.69 11.48 1.18 10.15Q1.67 8.82 2.14 7.64Q2.60 6.47 3.06 5.41Q3.51 4.35 4.00 3.35L4.00 3.35L6.09 3.35Q6.57 4.35 7.03 5.41Q7.49 6.47 7.96 7.64Q8.43 8.82 8.92 10.15Q9.41 11.48 9.95 13.05L9.95 13.05ZM5.00 5.54L5.00 5.54Q4.93 5.75 4.79 6.12Q4.65 6.48 4.47 6.96Q4.28 7.43 4.07 8.01Q3.85 8.58 3.63 9.21L3.63 9.21L6.38 9.21Q6.16 8.58 5.95 8.01Q5.74 7.43 5.55 6.96Q5.36 6.48 5.22 6.12Q5.08 5.75 5.00 5.54ZM13.16 13.05L11.07 13.05L11.07 2.52L13.16 2.18L13.16 5.71Q13.37 5.64 13.70 5.58Q14.03 5.52 14.34 5.52L14.34 5.52Q15.23 5.52 15.83 5.76Q16.42 6.01 16.78 6.45Q17.14 6.90 17.28 7.52Q17.43 8.13 17.43 8.89L17.43 8.89L17.43 13.05L15.34 13.05L15.34 9.14Q15.34 8.13 15.09 7.71Q14.83 7.29 14.13 7.29L14.13 7.29Q13.85 7.29 13.60 7.34Q13.36 7.39 13.16 7.45L13.16 7.45L13.16 13.05ZM23.37 13.05L23.37 9.14Q23.37 8.13 23.11 7.71Q22.85 7.29 22.22 7.29L22.22 7.29Q22.02 7.29 21.81 7.31Q21.60 7.34 21.41 7.36L21.41 7.36L21.41 13.05L19.32 13.05L19.32 5.94Q19.59 5.87 19.94 5.79Q20.30 5.71 20.70 5.65Q21.10 5.59 21.52 5.55Q21.94 5.52 22.34 5.52L22.34 5.52Q23.14 5.52 23.64 5.72Q24.14 5.92 24.46 6.20L24.46 6.20Q24.91 5.88 25.49 5.70Q26.07 5.52 26.56 5.52L26.56 5.52Q27.44 5.52 28.01 5.76Q28.57 6.01 28.91 6.45Q29.25 6.90 29.37 7.52Q29.50 8.13 29.50 8.89L29.50 8.89L29.50 13.05L27.41 13.05L27.41 9.14Q27.41 8.13 27.15 7.71Q26.89 7.29 26.26 7.29L26.26 7.29Q26.10 7.29 25.80 7.38Q25.49 7.46 25.30 7.59L25.30 7.59Q25.40 7.91 25.42 8.27Q25.45 8.62 25.45 9.03L25.45 9.03L25.45 13.05L23.37 13.05ZM31.04 9.42L31.04 9.42Q31.04 8.44 31.34 7.71Q31.64 6.97 32.13 6.48Q32.62 5.99 33.26 5.74Q33.89 5.49 34.57 5.49L34.57 5.49Q36.13 5.49 37.04 6.45Q37.95 7.41 37.95 9.27L37.95 9.27Q37.95 9.45 37.94 9.67Q37.93 9.88 37.91 10.05L37.91 10.05L33.18 10.05Q33.25 10.70 33.78 11.07Q34.31 11.45 35.21 11.45L35.21 11.45Q35.78 11.45 36.34 11.35Q36.89 11.24 37.24 11.09L37.24 11.09L37.52 12.78Q37.35 12.87 37.07 12.95Q36.79 13.03 36.45 13.10Q36.11 13.16 35.71 13.20Q35.32 13.24 34.93 13.24L34.93 13.24Q33.94 13.24 33.20 12.95Q32.47 12.66 31.98 12.14Q31.50 11.63 31.27 10.93Q31.04 10.23 31.04 9.42ZM33.18 8.62L35.94 8.62Q35.92 8.36 35.85 8.11Q35.77 7.85 35.61 7.66Q35.45 7.46 35.20 7.34Q34.96 7.21 34.59 7.21L34.59 7.21Q34.24 7.21 33.99 7.33Q33.74 7.45 33.57 7.64Q33.40 7.84 33.31 8.10Q33.22 8.36 33.18 8.62L33.18 8.62ZM41.34 9.31L41.34 9.31Q41.34 10.28 41.78 10.86Q42.21 11.45 43.06 11.45L43.06 11.45Q43.34 11.45 43.58 11.43Q43.82 11.41 43.97 11.38L43.97 11.38L43.97 7.59Q43.78 7.46 43.46 7.38Q43.15 7.29 42.83 7.29L42.83 7.29Q41.34 7.29 41.34 9.31ZM46.06 2.18L46.06 12.81Q45.78 12.89 45.42 12.97Q45.05 13.05 44.65 13.10Q44.25 13.16 43.84 13.20Q43.43 13.23 43.05 13.23L43.05 13.23Q42.14 13.23 41.43 12.96Q40.71 12.70 40.22 12.20Q39.73 11.70 39.47 11.00Q39.21 10.29 39.21 9.41L39.21 9.41Q39.21 8.51 39.44 7.79Q39.66 7.07 40.08 6.57Q40.50 6.06 41.11 5.80Q41.72 5.53 42.50 5.53L42.50 5.53Q42.94 5.53 43.28 5.61Q43.62 5.70 43.97 5.85L43.97 5.85L43.97 2.52L46.06 2.18ZM57.37 7.06L57.37 3.35L59.56 3.35L59.56 13.05L57.37 13.05L57.37 8.93L53.70 8.93L53.70 13.05L51.52 13.05L51.52 3.35L53.70 3.35L53.70 7.06L57.37 7.06ZM61.31 9.42L61.31 9.42Q61.31 8.44 61.61 7.71Q61.91 6.97 62.40 6.48Q62.89 5.99 63.53 5.74Q64.16 5.49 64.83 5.49L64.83 5.49Q66.40 5.49 67.31 6.45Q68.22 7.41 68.22 9.27L68.22 9.27Q68.22 9.45 68.21 9.67Q68.19 9.88 68.18 10.05L68.18 10.05L63.45 10.05Q63.52 10.70 64.05 11.07Q64.58 11.45 65.48 11.45L65.48 11.45Q66.05 11.45 66.61 11.35Q67.16 11.24 67.51 11.09L67.51 11.09L67.79 12.78Q67.62 12.87 67.34 12.95Q67.06 13.03 66.72 13.10Q66.37 13.16 65.98 13.20Q65.59 13.24 65.20 13.24L65.20 13.24Q64.20 13.24 63.47 12.95Q62.73 12.66 62.25 12.14Q61.77 11.63 61.54 10.93Q61.31 10.23 61.31 9.42ZM63.45 8.62L66.21 8.62Q66.19 8.36 66.12 8.11Q66.04 7.85 65.88 7.66Q65.72 7.46 65.47 7.34Q65.23 7.21 64.86 7.21L64.86 7.21Q64.51 7.21 64.26 7.33Q64.01 7.45 63.84 7.64Q63.67 7.84 63.58 8.10Q63.49 8.36 63.45 8.62L63.45 8.62ZM71.95 11.55L71.95 11.55Q72.52 11.55 72.76 11.44Q73.00 11.33 73.00 11.00L73.00 11.00Q73.00 10.75 72.69 10.56Q72.38 10.37 71.75 10.14L71.75 10.14Q71.26 9.95 70.86 9.76Q70.46 9.56 70.18 9.29Q69.90 9.02 69.75 8.64Q69.59 8.26 69.59 7.73L69.59 7.73Q69.59 6.69 70.36 6.09Q71.13 5.49 72.48 5.49L72.48 5.49Q73.15 5.49 73.77 5.61Q74.38 5.73 74.75 5.87L74.75 5.87L74.38 7.49Q74.02 7.36 73.59 7.27Q73.16 7.17 72.63 7.17L72.63 7.17Q71.65 7.17 71.65 7.71L71.65 7.71Q71.65 7.84 71.69 7.94Q71.74 8.04 71.86 8.13Q71.99 8.22 72.20 8.32Q72.42 8.43 72.76 8.55L72.76 8.55Q73.44 8.81 73.89 9.05Q74.34 9.30 74.60 9.58Q74.86 9.87 74.96 10.22Q75.07 10.57 75.07 11.03L75.07 11.03Q75.07 12.12 74.25 12.68Q73.43 13.24 71.93 13.24L71.93 13.24Q70.95 13.24 70.30 13.08Q69.65 12.91 69.40 12.80L69.40 12.80L69.75 11.10Q70.28 11.31 70.84 11.43Q71.40 11.55 71.95 11.55ZM78.71 13.05L76.62 13.05L76.62 2.52L78.71 2.18L78.71 5.71Q78.92 5.64 79.25 5.58Q79.58 5.52 79.88 5.52L79.88 5.52Q80.78 5.52 81.38 5.76Q81.97 6.01 82.33 6.45Q82.68 6.90 82.83 7.52Q82.98 8.13 82.98 8.89L82.98 8.89L82.98 13.05L80.89 13.05L80.89 9.14Q80.89 8.13 80.63 7.71Q80.37 7.29 79.67 7.29L79.67 7.29Q79.39 7.29 79.15 7.34Q78.90 7.39 78.71 7.45L78.71 7.45L78.71 13.05ZM87.68 11.59L87.68 11.59Q87.99 11.59 88.27 11.58Q88.55 11.56 88.72 11.54L88.72 11.54L88.72 9.95Q88.59 9.93 88.34 9.90Q88.09 9.87 87.88 9.87L87.88 9.87Q87.58 9.87 87.33 9.90Q87.07 9.94 86.87 10.04Q86.67 10.14 86.56 10.30Q86.45 10.47 86.45 10.72L86.45 10.72Q86.45 11.21 86.78 11.40Q87.11 11.59 87.68 11.59ZM87.51 5.49L87.51 5.49Q88.44 5.49 89.05 5.70Q89.67 5.91 90.04 6.30Q90.41 6.69 90.57 7.25Q90.72 7.81 90.72 8.50L90.72 8.50L90.72 12.84Q90.27 12.94 89.47 13.07Q88.68 13.20 87.54 13.20L87.54 13.20Q86.83 13.20 86.25 13.08Q85.67 12.95 85.25 12.66Q84.83 12.38 84.60 11.91Q84.38 11.45 84.38 10.78L84.38 10.78Q84.38 10.14 84.64 9.69Q84.90 9.24 85.33 8.97Q85.76 8.71 86.32 8.59Q86.88 8.47 87.49 8.47L87.49 8.47Q87.89 8.47 88.21 8.50Q88.52 8.54 88.72 8.60L88.72 8.60L88.72 8.40Q88.72 7.87 88.40 7.55Q88.07 7.22 87.28 7.22L87.28 7.22Q86.74 7.22 86.23 7.30Q85.71 7.38 85.33 7.52L85.33 7.52L85.06 5.84Q85.25 5.78 85.52 5.72Q85.79 5.66 86.11 5.61Q86.44 5.56 86.79 5.52Q87.15 5.49 87.51 5.49ZM96.66 13.05L96.66 9.14Q96.66 8.13 96.40 7.71Q96.14 7.29 95.51 7.29L95.51 7.29Q95.31 7.29 95.10 7.31Q94.89 7.34 94.70 7.36L94.70 7.36L94.70 13.05L92.61 13.05L92.61 5.94Q92.88 5.87 93.23 5.79Q93.59 5.71 93.99 5.65Q94.39 5.59 94.81 5.55Q95.23 5.52 95.63 5.52L95.63 5.52Q96.43 5.52 96.93 5.72Q97.43 5.92 97.75 6.20L97.75 6.20Q98.20 5.88 98.78 5.70Q99.36 5.52 99.85 5.52L99.85 5.52Q100.73 5.52 101.30 5.76Q101.86 6.01 102.20 6.45Q102.54 6.90 102.66 7.52Q102.79 8.13 102.79 8.89L102.79 8.89L102.79 13.05L100.70 13.05L100.70 9.14Q100.70 8.13 100.44 7.71Q100.18 7.29 99.55 7.29L99.55 7.29Q99.39 7.29 99.09 7.38Q98.78 7.46 98.59 7.59L98.59 7.59Q98.69 7.91 98.71 8.27Q98.74 8.62 98.74 9.03L98.74 9.03L98.74 13.05L96.66 13.05Z"></path></g><defs data-v-fde0c5aa=""><linearGradient data-v-fde0c5aa="" gradientTransform="rotate(25)" id="3b53afb6-6b9a-44ee-b158-92c15ef3b26f" x1="0%" y1="0%" x2="100%" y2="0%"><stop data-v-fde0c5aa="" offset="0%" stop-color="#ff851b" stop-opacity="1"></stop><stop data-v-fde0c5aa="" offset="100%" stop-color="#FF541B" stop-opacity="1"></stop></linearGradient></defs><g data-v-fde0c5aa="" id="8c3f11f0-c8ac-4b63-ab12-e0ffd2583b56" stroke="none" fill="url(#3b53afb6-6b9a-44ee-b158-92c15ef3b26f)" transform="matrix(0.44478482007980347,0,0,0.44478482007980347,38.976994820479206,127.738518636815)"><path d="M10 75.9h31.4v8.6h-6.1c-1 0-1.9.8-1.9 1.9v5.4c0 1 .8 1.9 1.9 1.9h29.5c1 0 1.9-.8 1.9-1.9v-5.4c0-1-.8-1.9-1.9-1.9h-6.1v-8.6H90c4.3 0 7.7-3.5 7.7-7.7V14.1c0-4.3-3.5-7.7-7.7-7.7H10c-4.3 0-7.7 3.5-7.7 7.7v54.1c0 4.3 3.4 7.7 7.7 7.7zm2.8-59h74.5v48.4H12.8V16.9zM50 22.7c-10.2 0-18.4 8.3-18.4 18.4 0 10.2 8.3 18.4 18.4 18.4s18.4-8.3 18.4-18.4c0-10.1-8.2-18.4-18.4-18.4zm-5.4 5.8c-1.1 1.6-2.2 3.5-3 6H38c1.5-2.7 3.8-4.8 6.6-6zM36.8 45c-.4-1.2-.6-2.5-.6-3.9s.2-2.7.6-3.9H41c-.2 1.2-.3 2.5-.3 3.9s.1 2.7.3 3.9h-4.2zm1.2 2.8h3.6c.7 2.4 1.8 4.4 3 6-2.8-1.3-5.1-3.4-6.6-6zm10.6 6.5c-1.3-1.3-3-3.5-4.1-6.5h4.1v6.5zm0-9.3h-4.8c-.2-1.2-.4-2.5-.4-3.9s.1-2.7.4-3.9h4.9V45zm0-10.5h-4.1c1.1-3 2.8-5.2 4.1-6.5v6.5zm13.4 0h-3.6c-.7-2.4-1.8-4.4-3-6 2.8 1.2 5.1 3.3 6.6 6zM51.4 28c1.3 1.3 3 3.5 4.1 6.5h-4.1V28zm0 9.2h4.8c.2 1.2.4 2.5.4 3.9s-.1 2.7-.4 3.9h-4.9v-7.8zm0 10.6h4.1c-1.1 3-2.8 5.2-4.1 6.5v-6.5zm4 5.9c1.1-1.6 2.2-3.5 3-6H62c-1.5 2.7-3.8 4.8-6.6 6zm8.3-12.6c0 1.4-.2 2.7-.6 3.9H59c.2-1.2.3-2.5.3-3.9s-.1-2.7-.3-3.9h4.1c.4 1.3.6 2.6.6 3.9z"></path></g><defs data-v-fde0c5aa=""><!----></defs><g data-v-fde0c5aa="" id="0397d18c-53a5-4330-801d-f163f03b10ad" fill="#9F581B" transform="matrix(0.4967176616191864,0,0,0.4967176616191864,93.79330118126991,156.0442880009581)"><path d="M3.30 14.90L3.30 14.90Q3.30 14.49 3.59 14.20Q3.88 13.92 4.28 13.92L4.28 13.92Q4.69 13.92 4.98 14.20Q5.26 14.49 5.26 14.90L5.26 14.90Q5.26 15.30 4.98 15.59Q4.69 15.88 4.28 15.88L4.28 15.88Q3.88 15.88 3.59 15.59Q3.30 15.30 3.30 14.90ZM18.94 5.88L21.77 15.18L21.94 15.18L21.94 5.88L23.11 5.88L23.11 15.68L20.76 15.68L17.93 6.38L17.77 6.38L17.77 15.68L16.59 15.68L16.59 5.88L18.94 5.88ZM32.45 15.68L32.45 5.88L38.39 5.88L38.39 6.97L33.63 6.97L33.63 10.22L38.30 10.22L38.30 11.31L33.63 11.31L33.63 14.59L38.47 14.59L38.47 15.68L32.45 15.68ZM47.54 6.97L47.54 5.88L54.43 5.88L54.43 6.97L51.58 6.97L51.58 15.68L50.40 15.68L50.40 6.97L47.54 6.97ZM84.94 15.68L84.22 13.24L80.02 13.24L79.31 15.68L78.05 15.68L81.02 5.88L83.23 5.88L86.20 15.68L84.94 15.68ZM82.21 6.38L82.04 6.38L80.35 12.15L83.90 12.15L82.21 6.38ZM96.78 5.88L99.61 15.18L99.78 15.18L99.78 5.88L100.95 5.88L100.95 15.68L98.60 15.68L95.77 6.38L95.61 6.38L95.61 15.68L94.43 15.68L94.43 5.88L96.78 5.88ZM110.00 6.97L110.00 5.88L113.22 5.88Q115.04 5.88 115.88 6.75Q116.72 7.62 116.72 9.52L116.72 9.52L116.72 12.04Q116.72 13.94 115.88 14.81Q115.04 15.68 113.22 15.68L113.22 15.68L110.00 15.68L110.00 14.57L110.84 14.57L110.84 6.97L110.00 6.97ZM112.01 14.59L113.05 14.59Q113.69 14.59 114.16 14.46Q114.63 14.34 114.94 14.04Q115.25 13.73 115.39 13.23Q115.54 12.73 115.54 11.96L115.54 11.96L115.54 9.60Q115.54 8.83 115.39 8.33Q115.25 7.83 114.94 7.53Q114.63 7.22 114.16 7.10Q113.69 6.97 113.05 6.97L113.05 6.97L112.01 6.97L112.01 14.59ZM148.53 5.88L147.53 15.68L145.39 15.68L144.48 6.38L144.31 6.38L143.40 15.68L141.26 15.68L140.27 5.88L141.33 5.88L142.27 15.18L142.44 15.18L143.32 5.88L145.47 5.88L146.36 15.18L146.52 15.18L147.46 5.88L148.53 5.88ZM157.00 15.68L157.00 5.88L162.93 5.88L162.93 6.97L158.17 6.97L158.17 10.22L162.85 10.22L162.85 11.31L158.17 11.31L158.17 14.59L163.02 14.59L163.02 15.68L157.00 15.68ZM172.05 15.68L172.05 14.59L172.89 14.59L172.89 6.97L172.05 6.97L172.05 5.88L176.01 5.88Q176.71 5.88 177.25 6.08Q177.79 6.27 178.16 6.61Q178.53 6.94 178.72 7.41Q178.91 7.88 178.91 8.43L178.91 8.43L178.91 8.60Q178.91 9.00 178.78 9.34Q178.65 9.67 178.43 9.94Q178.21 10.21 177.91 10.39Q177.60 10.58 177.25 10.68L177.25 10.68L177.25 10.85Q177.95 11.05 178.43 11.60Q178.91 12.15 178.91 12.95L178.91 12.95L178.91 13.12Q178.91 13.66 178.72 14.13Q178.53 14.60 178.16 14.95Q177.79 15.29 177.25 15.48Q176.71 15.68 176.01 15.68L176.01 15.68L172.05 15.68ZM174.06 11.31L174.06 14.59L175.92 14.59Q176.75 14.59 177.27 14.17Q177.79 13.76 177.79 13.03L177.79 13.03L177.79 12.95Q177.79 12.19 177.30 11.75Q176.81 11.31 175.97 11.31L175.97 11.31L174.06 11.31ZM174.06 6.97L174.06 10.22L175.97 10.22Q176.81 10.22 177.30 9.79Q177.79 9.35 177.79 8.60L177.79 8.60L177.79 8.51Q177.79 7.80 177.27 7.38Q176.75 6.97 175.92 6.97L175.92 6.97L174.06 6.97ZM203.41 6.97L203.41 5.88L206.63 5.88Q208.45 5.88 209.29 6.75Q210.13 7.62 210.13 9.52L210.13 9.52L210.13 12.04Q210.13 13.94 209.29 14.81Q208.45 15.68 206.63 15.68L206.63 15.68L203.41 15.68L203.41 14.57L204.25 14.57L204.25 6.97L203.41 6.97ZM205.42 14.59L206.46 14.59Q207.10 14.59 207.57 14.46Q208.04 14.34 208.35 14.04Q208.66 13.73 208.80 13.23Q208.95 12.73 208.95 11.96L208.95 11.96L208.95 9.60Q208.95 8.83 208.80 8.33Q208.66 7.83 208.35 7.53Q208.04 7.22 207.57 7.10Q207.10 6.97 206.46 6.97L206.46 6.97L205.42 6.97L205.42 14.59ZM219.27 15.68L219.27 5.88L225.20 5.88L225.20 6.97L220.44 6.97L220.44 10.22L225.12 10.22L225.12 11.31L220.44 11.31L220.44 14.59L225.29 14.59L225.29 15.68L219.27 15.68ZM236.67 15.68L233.90 5.88L235.16 5.88L237.72 15.18L237.89 15.18L240.45 5.88L241.71 5.88L238.94 15.68L236.67 15.68ZM250.40 15.68L250.40 5.88L256.34 5.88L256.34 6.97L251.58 6.97L251.58 10.22L256.26 10.22L256.26 11.31L251.58 11.31L251.58 14.59L256.42 14.59L256.42 15.68L250.40 15.68ZM265.87 15.68L265.87 5.88L267.05 5.88L267.05 14.59L272.17 14.59L272.17 15.68L265.87 15.68ZM281.06 11.87L281.06 9.69Q281.06 7.78 281.97 6.73Q282.88 5.68 284.51 5.68L284.51 5.68Q286.13 5.68 287.04 6.73Q287.95 7.78 287.95 9.69L287.95 9.69L287.95 11.87Q287.95 13.83 287.04 14.85Q286.13 15.88 284.51 15.88L284.51 15.88Q282.88 15.88 281.97 14.85Q281.06 13.83 281.06 11.87L281.06 11.87ZM284.51 14.78L284.51 14.78Q285.64 14.78 286.21 14.01Q286.78 13.23 286.78 11.79L286.78 11.79L286.78 9.77Q286.78 8.43 286.21 7.60Q285.64 6.78 284.51 6.78L284.51 6.78Q283.37 6.78 282.81 7.60Q282.24 8.43 282.24 9.77L282.24 9.77L282.24 11.79Q282.24 13.23 282.81 14.01Q283.37 14.78 284.51 14.78ZM300.48 11.65L298.16 11.65L298.16 15.68L296.98 15.68L296.98 5.88L300.48 5.88Q301.24 5.88 301.80 6.10Q302.36 6.31 302.73 6.68Q303.10 7.04 303.29 7.53Q303.48 8.01 303.48 8.54L303.48 8.54L303.48 8.96Q303.48 9.49 303.29 9.98Q303.10 10.47 302.72 10.84Q302.34 11.21 301.78 11.43Q301.22 11.65 300.48 11.65L300.48 11.65ZM298.16 6.97L298.16 10.56L300.34 10.56Q302.30 10.56 302.30 8.88L302.30 8.88L302.30 8.62Q302.30 7.88 301.82 7.43Q301.34 6.97 300.34 6.97L300.34 6.97L298.16 6.97ZM312.68 15.68L312.68 5.88L318.61 5.88L318.61 6.97L313.85 6.97L313.85 10.22L318.53 10.22L318.53 11.31L313.85 11.31L313.85 14.59L318.70 14.59L318.70 15.68L312.68 15.68ZM334.28 12.15L334.28 15.68L333.10 15.68L333.10 12.40Q333.10 12.04 332.93 11.84Q332.77 11.65 332.35 11.65L332.35 11.65L329.29 11.65L329.29 15.68L328.12 15.68L328.12 5.88L331.62 5.88Q332.37 5.88 332.93 6.10Q333.49 6.31 333.87 6.68Q334.24 7.04 334.43 7.53Q334.61 8.01 334.61 8.54L334.61 8.54L334.61 8.96Q334.61 9.51 334.31 10.05Q334.01 10.60 333.38 10.89L333.38 10.89L333.38 11.06Q333.80 11.13 334.04 11.40Q334.28 11.66 334.28 12.15L334.28 12.15ZM329.29 6.97L329.29 10.56L331.48 10.56Q332.47 10.56 332.95 10.13Q333.44 9.70 333.44 8.88L333.44 8.88L333.44 8.62Q333.44 7.88 332.95 7.43Q332.47 6.97 331.48 6.97L331.48 6.97L329.29 6.97Z"></path></g></svg>